<svg version="1.1" xmlns="http://www.w3.org/2000/svg" xmlns:xlink="http://www.w3.org/1999/xlink" viewBox="0 0 172 172"><g fill="none" fill-rule="nonzero" stroke="none" stroke-width="1" stroke-linecap="butt" stroke-linejoin="miter" stroke-miterlimit="10" stroke-dasharray="" stroke-dashoffset="0" font-family="none" font-weight="none" font-size="none" text-anchor="none" style="mix-blend-mode: normal"><path d="M0,172v-172h172v172z" fill="none"></path><g><path d="M100.33333,82.41667h-14.33333v7.16667h14.33333c1.978,0 3.58333,-1.60533 3.58333,-3.58333c0,-1.978 -1.60533,-3.58333 -3.58333,-3.58333z" fill="#199be2"></path><path d="M100.33333,68.08333h-14.33333v7.16667h14.33333c1.978,0 3.58333,-1.60533 3.58333,-3.58333c0,-1.978 -1.60533,-3.58333 -3.58333,-3.58333z" fill="#199be2"></path><path d="M100.33333,53.75h-14.33333v7.16667h14.33333c1.978,0 3.58333,-1.60533 3.58333,-3.58333c0,-1.978 -1.60533,-3.58333 -3.58333,-3.58333z" fill="#199be2"></path><path d="M100.33333,39.41667h-14.33333v7.16667h14.33333c1.978,0 3.58333,-1.60533 3.58333,-3.58333c0,-1.978 -1.60533,-3.58333 -3.58333,-3.58333z" fill="#199be2"></path><path d="M100.33333,25.08333h-14.33333v7.16667h14.33333c1.978,0 3.58333,-1.60533 3.58333,-3.58333c0,-1.978 -1.60533,-3.58333 -3.58333,-3.58333z" fill="#199be2"></path><path d="M100.33333,96.56008v-78.64342c0,-1.978 -1.60533,-3.58333 -3.58333,-3.58333h-21.5c-1.978,0 -3.58333,1.60533 -3.58333,3.58333v78.64342c-10.61025,5.28183 -17.91667,16.20383 -17.91667,28.85658c0,17.81275 14.43725,32.25 32.25,32.25c17.81275,0 32.25,-14.43725 32.25,-32.25c0,-12.65633 -7.30642,-23.57833 -17.91667,-28.85658z" fill="#35c1f1"></path><circle cx="24" cy="35" transform="scale(3.58333,3.58333)" r="6" fill="#af2031"></circle><rect x="23" y="15" transform="scale(3.58333,3.58333)" width="2" height="16" fill="#af2031"></rect><rect x="23" y="7" transform="scale(3.58333,3.58333)" width="2" height="8" fill="#1b9de2"></rect></g></g></svg>