<?xml version="1.0" encoding="UTF-8" standalone="no"?>
<!-- Created with Inkscape (http://www.inkscape.org/) -->
<svg xmlns:dc="http://purl.org/dc/elements/1.1/" xmlns:cc="http://creativecommons.org/ns#" xmlns:rdf="http://www.w3.org/1999/02/22-rdf-syntax-ns#" xmlns:svg="http://www.w3.org/2000/svg" xmlns="http://www.w3.org/2000/svg" xmlns:sodipodi="http://sodipodi.sourceforge.net/DTD/sodipodi-0.dtd" xmlns:inkscape="http://www.inkscape.org/namespaces/inkscape" version="1.1" id="svg1077" width="25.6" height="25.6" viewBox="0 0 25.6 25.6" sodipodi:docname="cog.svg" inkscape:version="0.92.4 (f8dce91, 2019-08-02)">
  <metadata id="metadata1083">
    <rdf:RDF>
      <cc:Work rdf:about="">
        <dc:format>image/svg+xml</dc:format>
        <dc:type rdf:resource="http://purl.org/dc/dcmitype/StillImage"/>
        <dc:title/>
      </cc:Work>
    </rdf:RDF>
  </metadata>
  <defs id="defs1081"/>
  <sodipodi:namedview pagecolor="#ffffff" bordercolor="#666666" borderopacity="1" objecttolerance="10" gridtolerance="10" guidetolerance="10" inkscape:pageopacity="0" inkscape:pageshadow="2" inkscape:window-width="1862" inkscape:window-height="1016" id="namedview1079" showgrid="false" inkscape:zoom="18.4375" inkscape:cx="3.0996962" inkscape:cy="9.2757663" inkscape:window-x="58" inkscape:window-y="27" inkscape:window-maximized="1" inkscape:current-layer="g1636" inkscape:snap-object-midpoints="false"/>
  <g id="g1636" transform="translate(-3.9502101,-4.7172412)">
    <path style="fill:#ffffff;fill-opacity:1;stroke-width:0.025" d="M 10.455078 0.22265625 L 9.4550781 0.48046875 C 8.5273271 0.71883555 8.4535069 0.7413198 8.4355469 0.796875 C 8.4248969 0.82981 8.3257968 1.3355469 8.2148438 1.9199219 C 8.0234128 2.9281732 8.0029544 3.0942875 8.0527344 3.21875 C 8.0609344 3.239375 8.0590281 3.2696662 8.0488281 3.2851562 C 8.0386581 3.3006473 7.777595 3.4573963 7.46875 3.6328125 L 6.90625 3.9511719 L 6.7929688 3.8886719 C 6.6820348 3.8266833 4.5666235 3.1190406 4.4921875 3.1191406 C 4.4714738 3.1191673 4.1296234 3.4444179 3.7324219 3.8417969 L 3.0097656 4.5644531 L 3.3808594 5.671875 C 3.5978549 6.318974 3.7751436 6.8038969 3.8066406 6.8417969 C 3.9264076 6.9859209 3.9260611 7.0015121 3.8085938 7.1738281 C 3.7491297 7.2610581 3.6020249 7.4985619 3.4824219 7.7011719 C 3.3628189 7.9037819 3.24482 8.0798 3.21875 8.09375 C 3.19268 8.1077 3.1169983 8.1204638 3.0507812 8.1210938 C 2.9845653 8.1217277 2.4294812 8.2133739 1.8183594 8.3261719 L 0.70703125 8.53125 L 0.43554688 9.5039062 C 0.28611357 10.038291 0.16916125 10.488609 0.17578125 10.505859 C 0.18548125 10.531129 1.7371417 11.914164 1.9003906 12.042969 C 1.9250656 12.062439 1.9862676 12.08545 2.0371094 12.09375 L 2.1308594 12.107422 L 2.1308594 12.820312 L 2.1308594 13.53125 L 2.0273438 13.544922 C 1.9365358 13.557042 1.8321506 13.642652 1.0527344 14.330078 C 0.57244168 14.753686 0.17704812 15.117955 0.17382812 15.140625 C 0.17060813 15.163295 0.2891668 15.638434 0.4375 16.195312 L 0.70703125 17.207031 L 1.8515625 17.416016 L 2.9941406 17.626953 L 3.0917969 17.582031 C 3.1455939 17.557791 3.2076346 17.544734 3.2285156 17.552734 C 3.2493966 17.560734 3.3071586 17.648234 3.3574219 17.748047 C 3.4076849 17.847857 3.5478297 18.098094 3.6699219 18.302734 C 3.7920179 18.507375 3.8925781 18.695533 3.8925781 18.720703 C 3.8925781 18.745873 3.8591584 18.792294 3.8183594 18.824219 C 3.7523994 18.875849 3.7028826 19.001545 3.3789062 19.966797 C 3.1785143 20.563843 3.0195206 21.065248 3.0253906 21.080078 C 3.0437476 21.126488 4.450624 22.606834 4.484375 22.615234 C 4.528323 22.626214 6.714225 21.800987 6.796875 21.742188 C 6.833375 21.716227 6.8768912 21.695313 6.8945312 21.695312 C 6.9480113 21.695312 8.0376434 22.318082 8.0527344 22.357422 C 8.0604344 22.377562 8.0543356 22.423832 8.0410156 22.458984 C 8.0276456 22.494134 8.0174281 22.557775 8.0175781 22.601562 C 8.0178661 22.682883 8.4305787 24.866136 8.4492188 24.884766 C 8.4548187 24.890366 8.8871491 25.007087 9.4082031 25.142578 C 9.9292561 25.278071 10.384362 25.388925 10.419922 25.390625 C 10.475112 25.393225 10.598454 25.263948 11.257812 24.505859 C 11.682681 24.017371 12.04468 23.590651 12.0625 23.556641 L 12.09375 23.494141 L 12.767578 23.494141 L 13.441406 23.494141 L 13.472656 23.556641 C 13.532916 23.671642 15.050827 25.394531 15.091797 25.394531 C 15.137957 25.394531 17.070097 24.900606 17.085938 24.884766 C 17.091638 24.879066 17.193735 24.368 17.3125 23.748047 C 17.508365 22.725697 17.525413 22.608686 17.501953 22.494141 C 17.483613 22.404771 17.484676 22.357754 17.503906 22.333984 C 17.539146 22.290314 18.598235 21.695313 18.640625 21.695312 C 18.658415 21.695312 18.701781 21.716227 18.738281 21.742188 C 18.820181 21.800458 21.005898 22.626324 21.048828 22.615234 C 21.074158 22.608734 21.466542 22.199898 22.4375 21.166016 L 22.523438 21.074219 L 22.15625 19.972656 C 21.825542 18.980526 21.780574 18.865169 21.714844 18.818359 C 21.674694 18.789769 21.642578 18.746456 21.642578 18.722656 C 21.642578 18.698856 21.745566 18.505421 21.871094 18.292969 C 21.99662 18.080517 22.139663 17.825319 22.189453 17.724609 C 22.287943 17.525368 22.298395 17.51966 22.480469 17.59375 C 22.545969 17.6204 22.699219 17.598451 23.691406 17.416016 L 24.828125 17.207031 L 25.097656 16.195312 C 25.245994 15.638437 25.364528 15.163295 25.361328 15.140625 C 25.358128 15.117955 24.962715 14.753685 24.482422 14.330078 C 23.703006 13.64265 23.596669 13.557042 23.505859 13.544922 L 23.404297 13.53125 L 23.404297 12.820312 L 23.404297 12.107422 L 23.498047 12.09375 C 23.548887 12.08545 23.610096 12.062439 23.634766 12.042969 C 23.798015 11.914165 25.349675 10.531129 25.359375 10.505859 C 25.365975 10.488609 25.249044 10.038292 25.099609 9.5039062 L 24.828125 8.53125 L 23.716797 8.3261719 C 23.105676 8.2133719 22.550595 8.1217288 22.484375 8.1210938 C 22.418155 8.1204638 22.342476 8.1077 22.316406 8.09375 C 22.290336 8.0798 22.172337 7.9037819 22.052734 7.7011719 C 21.933131 7.4985619 21.786022 7.2610581 21.726562 7.1738281 C 21.609091 7.0015121 21.608704 6.9859199 21.728516 6.8417969 C 21.760016 6.8038969 21.937301 6.318973 22.154297 5.671875 L 22.525391 4.5644531 L 21.802734 3.8417969 C 21.405533 3.4444179 21.063679 3.1191656 21.042969 3.1191406 C 20.968529 3.1190446 18.853115 3.8266829 18.742188 3.8886719 L 18.628906 3.9511719 L 18.066406 3.6328125 C 17.757562 3.4573963 17.496498 3.3006473 17.486328 3.2851562 C 17.476128 3.2696663 17.474112 3.239375 17.482422 3.21875 C 17.532202 3.0942875 17.511741 2.9281732 17.320312 1.9199219 C 17.209354 1.3355467 17.110259 0.82981 17.099609 0.796875 C 17.081648 0.7413203 17.007824 0.71883595 16.080078 0.48046875 L 15.080078 0.22265625 L 15.001953 0.30273438 C 14.958773 0.34635638 14.607339 0.74666225 14.220703 1.1914062 C 13.639877 1.8595261 13.512794 2.0178369 13.490234 2.1074219 C 13.475214 2.1670559 13.449894 2.2203126 13.433594 2.2265625 C 13.417294 2.2328225 13.319413 2.2234221 13.216797 2.2050781 C 12.97778 2.1623451 12.557377 2.1623451 12.318359 2.2050781 C 12.215744 2.2234231 12.117863 2.2328125 12.101562 2.2265625 C 12.085262 2.2203125 12.059942 2.1670555 12.044922 2.1074219 C 12.022362 2.0178369 11.89528 1.8595261 11.314453 1.1914062 C 10.927818 0.74666225 10.576383 0.34635638 10.533203 0.30273438 L 10.455078 0.22265625 z M 12.691406 3.0371094 A 9.7627125 9.7627125 0 0 1 22.455078 12.800781 A 9.7627125 9.7627125 0 0 1 12.691406 22.5625 A 9.7627125 9.7627125 0 0 1 2.9296875 12.800781 A 9.7627125 9.7627125 0 0 1 12.691406 3.0371094 z " transform="translate(3.9502101,4.7172412)" id="path1642"/>
    <path style="fill:#ffffff;fill-opacity:1;stroke-width:0.02007618" d="m 16.288065,24.361162 c -2.19707,-0.158705 -4.111866,-1.262083 -5.310637,-3.06019 -0.59429,-0.891411 -0.932113,-1.824753 -1.0969047,-3.030547 -0.039533,-0.289264 -0.033325,-1.246821 0.010217,-1.575979 0.1546937,-1.16942 0.5599657,-2.210987 1.2244847,-3.146982 0.665242,-0.937014 1.653659,-1.7553 2.691082,-2.22788 0.668731,-0.304628 1.288164,-0.48219 2.060158,-0.590548 0.356347,-0.05001 1.330053,-0.05001 1.686399,0 1.609713,0.225941 2.924673,0.869203 4.026257,1.969594 0.53967,0.539085 0.915259,1.056313 1.254221,1.727207 0.369025,0.730394 0.584986,1.435081 0.695248,2.268609 0.04354,0.329158 0.04975,1.286715 0.01021,1.575979 -0.152983,1.119388 -0.461219,2.020392 -0.970862,2.837936 -1.111306,1.782697 -2.905261,2.935279 -4.990268,3.206154 -0.304993,0.03962 -1.02587,0.0657 -1.289611,0.04665 z m 0.499202,-0.877713 c 0.01664,-0.02004 -0.02374,-0.342207 -0.159136,-1.269818 -0.09978,-0.683628 -0.18923,-1.261981 -0.198765,-1.285228 -0.01507,-0.03674 -0.04053,-0.04414 -0.194757,-0.05662 -0.574163,-0.04646 -1.082921,-0.245544 -1.572714,-0.615432 -0.156887,-0.11848 -0.461753,-0.407863 -0.461753,-0.438303 0,-0.06746 -0.141595,-0.0036 -1.202243,0.542121 -0.625147,0.321657 -1.147924,0.593973 -1.161727,0.605145 -0.0138,0.01117 -0.0251,0.02732 -0.0251,0.03589 0,0.04764 0.410483,0.533411 0.671123,0.794219 0.4099,0.410167 0.788478,0.696685 1.302714,0.985932 0.652946,0.367268 1.479847,0.627664 2.242161,0.706068 0.287308,0.02955 0.73431,0.02722 0.760192,-0.0039 z m 2.045306,-0.325408 c 0.545638,-0.216943 1.139225,-0.558436 1.626508,-0.935741 0.277756,-0.215067 0.836166,-0.773047 1.031585,-1.030791 0.409841,-0.540554 0.755232,-1.192956 0.931508,-1.759513 0.04133,-0.132836 0.0324,-0.16994 -0.04465,-0.185409 -0.03111,-0.0063 -0.612174,-0.08444 -1.291251,-0.173774 -1.179641,-0.155179 -1.235839,-0.160798 -1.26058,-0.126051 -0.01425,0.02 -0.08202,0.131227 -0.150617,0.247167 -0.237327,0.40112 -0.579329,0.807576 -0.8512,1.011618 -0.09497,0.07128 -0.303506,0.1958 -0.463407,0.276713 -0.159901,0.08091 -0.295284,0.158983 -0.300851,0.173486 -0.01155,0.03009 0.353318,2.498099 0.380098,2.571027 0.01513,0.04121 0.02702,0.04618 0.08717,0.03642 0.03831,-0.0062 0.175865,-0.05353 0.30569,-0.105151 z m -6.616646,-4.285622 c 0.621254,-0.320376 1.137995,-0.590943 1.148313,-0.601261 0.01163,-0.01163 0.0061,-0.108814 -0.01459,-0.25568 -0.101133,-0.718447 0.0273,-1.416798 0.369824,-2.010898 0.0535,-0.09279 0.07618,-0.151764 0.06545,-0.17018 -0.009,-0.0155 -0.427828,-0.445371 -0.930662,-0.955266 -0.621197,-0.629919 -0.923648,-0.923277 -0.943581,-0.915213 -0.06273,0.02538 -0.383016,0.535827 -0.573263,0.91363 -0.695576,1.381318 -0.829154,2.908297 -0.385493,4.406721 0.05115,0.172747 0.04996,0.170647 0.09646,0.170647 0.02089,0 0.546285,-0.262125 1.16754,-0.5825 z m 4.915338,0.378961 c 0.626258,-0.158105 1.133721,-0.692794 1.276767,-1.345269 0.0415,-0.189304 0.04274,-0.563744 0.0025,-0.750246 -0.06815,-0.315693 -0.238288,-0.644332 -0.44441,-0.858418 -0.19145,-0.198848 -0.529263,-0.375275 -0.860082,-0.449188 -0.193639,-0.04326 -0.59907,-0.04326 -0.792709,0 -0.330819,0.07391 -0.668632,0.25034 -0.860083,0.449188 -0.206121,0.214086 -0.37626,0.542725 -0.444409,0.858418 -0.04026,0.186502 -0.03902,0.560942 0.0025,0.750246 0.160576,0.732432 0.770916,1.300455 1.491153,1.387765 0.181686,0.02203 0.443269,0.0043 0.628813,-0.0425 z m 5.577601,-1.784002 c 0.0035,-0.104898 -0.0036,-0.303652 -0.01597,-0.441676 -0.12274,-1.372751 -0.636177,-2.558553 -1.540502,-3.557836 -0.285665,-0.315661 -0.52909,-0.520402 -0.865044,-0.727577 -0.108682,-0.06702 -0.130232,-0.07395 -0.153949,-0.04943 -0.04199,0.0434 -1.175202,2.253406 -1.175202,2.291898 0,0.0185 0.03839,0.0562 0.08532,0.08379 0.125813,0.07395 0.386305,0.384007 0.541198,0.644169 0.250588,0.420892 0.422469,0.899488 0.479473,1.335065 0.01229,0.09386 0.0301,0.178875 0.03959,0.188932 0.02244,0.02379 2.436208,0.431216 2.528356,0.426776 l 0.07027,-0.0034 z m -7.475077,-2.993066 c 0.689811,-0.325383 1.395368,-0.416018 2.041036,-0.262188 0.08233,0.01961 0.161326,0.03178 0.175558,0.02704 0.03076,-0.01026 1.186595,-2.323241 1.186595,-2.37455 0,-0.04254 -0.133699,-0.08998 -0.501904,-0.178099 -0.486838,-0.116507 -0.776566,-0.148359 -1.365181,-0.150084 -0.524477,-0.0015 -0.643726,0.0076 -1.064037,0.08187 -0.718289,0.126851 -1.512988,0.435122 -2.143954,0.831659 -0.249067,0.15653 -0.445873,0.296921 -0.445873,0.318065 0,0.0388 1.828149,1.806878 1.869143,1.807726 0.01769,3.67e-4 0.129571,-0.04528 0.248617,-0.10143 z" id="path1640" inkscape:connector-curvature="0"/>
  </g>
  <path style="fill:#000000;stroke-width:0.025" d="" id="path1630" inkscape:connector-curvature="0"/>
</svg>