<?xml version="1.0" encoding="UTF-8" standalone="no"?>
<svg
   xmlns:dc="http://purl.org/dc/elements/1.1/"
   xmlns:cc="http://creativecommons.org/ns#"
   xmlns:rdf="http://www.w3.org/1999/02/22-rdf-syntax-ns#"
   xmlns:svg="http://www.w3.org/2000/svg"
   xmlns="http://www.w3.org/2000/svg"
   xmlns:sodipodi="http://sodipodi.sourceforge.net/DTD/sodipodi-0.dtd"
   xmlns:inkscape="http://www.inkscape.org/namespaces/inkscape"
   sodipodi:docname="plus.svg"
   height="100%"
   width="100%"
   inkscape:version="1.0 (4035a4fb49, 2020-05-01)"
   version="1.1"
   id="svg3013"
   viewBox="0 -256 1792 1792">
  <metadata
     id="metadata3023">
    <rdf:RDF>
      <cc:Work
         rdf:about="">
        <dc:format>image/svg+xml</dc:format>
        <dc:type
           rdf:resource="http://purl.org/dc/dcmitype/StillImage" />
      </cc:Work>
    </rdf:RDF>
  </metadata>
  <defs
     id="defs3021" />
  <sodipodi:namedview
     inkscape:document-rotation="0"
     inkscape:current-layer="svg3013"
     inkscape:window-maximized="0"
     inkscape:window-y="25"
     inkscape:window-x="0"
     inkscape:cy="896"
     inkscape:cx="896"
     inkscape:zoom="0.13169643"
     showgrid="false"
     id="namedview3019"
     inkscape:window-height="480"
     inkscape:window-width="687"
     inkscape:pageshadow="2"
     inkscape:pageopacity="0"
     guidetolerance="10"
     gridtolerance="10"
     objecttolerance="10"
     borderopacity="1"
     bordercolor="#666666"
     pagecolor="#ffffff" />
  <g
     style="fill:#ffffff"
     id="g3015"
     transform="matrix(1,0,0,-1,205.01695,1368.9492)">
    <path
       style="fill:#ffffff"
       inkscape:connector-curvature="0"
       id="path3017"
       d="M 1408,800 V 608 q 0,-40 -28,-68 -28,-28 -68,-28 H 896 V 96 Q 896,56 868,28 840,0 800,0 H 608 Q 568,0 540,28 512,56 512,96 V 512 H 96 Q 56,512 28,540 0,568 0,608 v 192 q 0,40 28,68 28,28 68,28 h 416 v 416 q 0,40 28,68 28,28 68,28 h 192 q 40,0 68,-28 28,-28 28,-68 V 896 h 416 q 40,0 68,-28 28,-28 28,-68 z" />
  </g>
</svg>
