<svg version="1.1" xmlns="http://www.w3.org/2000/svg" xmlns:xlink="http://www.w3.org/1999/xlink" viewBox="0 0 226 226"><defs><linearGradient x1="63.46833" y1="54.58371" x2="148.94342" y2="178.22454" gradientUnits="userSpaceOnUse" id="color-1"><stop offset="0" stop-color="#7dd8f3"/><stop offset="1" stop-color="#45b0d0"/></linearGradient><linearGradient x1="21.72425" y1="36.44721" x2="202.157" y2="73.13454" gradientUnits="userSpaceOnUse" id="color-2"><stop offset="0" stop-color="#0077d2"/><stop offset="1" stop-color="#0b59a2"/></linearGradient><linearGradient x1="75.33333" y1="54.14583" x2="197.75" y2="54.14583" gradientUnits="userSpaceOnUse" id="color-3"><stop offset="0" stop-color="#7dd8f3"/><stop offset="1" stop-color="#45b0d0"/></linearGradient><linearGradient x1="31.78596" y1="49.042" x2="37.81733" y2="57.76654" gradientUnits="userSpaceOnUse" id="color-4"><stop offset="0" stop-color="#75daff"/><stop offset="1" stop-color="#49bef1"/></linearGradient><linearGradient x1="55.32762" y1="49.042" x2="61.359" y2="57.76654" gradientUnits="userSpaceOnUse" id="color-5"><stop offset="0" stop-color="#75daff"/><stop offset="1" stop-color="#49bef1"/></linearGradient><radialGradient cx="115.44362" cy="154.67817" r="42.00775" gradientUnits="userSpaceOnUse" id="color-6"><stop offset="0" stop-color="#ba84f5"/><stop offset="0.129" stop-color="#b584f3"/><stop offset="0.291" stop-color="#a585ee"/><stop offset="0.47" stop-color="#8c87e6"/><stop offset="0.662" stop-color="#6889db"/><stop offset="0.862" stop-color="#3b8bcd"/><stop offset="1" stop-color="#178dc2"/></radialGradient><linearGradient x1="70.46021" y1="121.08892" x2="70.46021" y2="165.54971" gradientUnits="userSpaceOnUse" id="color-7"><stop offset="0" stop-color="#124787"/><stop offset="0.923" stop-color="#173b75"/><stop offset="1" stop-color="#173a73"/></linearGradient></defs><g fill="none" fill-rule="nonzero" stroke="none" stroke-width="1" stroke-linecap="butt" stroke-linejoin="miter" stroke-miterlimit="10" stroke-dasharray="" stroke-dashoffset="0" font-family="none" font-weight="none" font-size="none" text-anchor="none" style="mix-blend-mode: normal"><path d="M0,226v-226h226v226z" fill="none"/><g><path d="M18.83333,178.91667v-108.29167h188.33333v108.29167c0,5.17917 -4.2375,9.41667 -9.41667,9.41667h-169.5c-5.17917,0 -9.41667,-4.2375 -9.41667,-9.41667z" fill="url(#color-1)"/><path d="M185.97917,108.29167h-61.20833c-1.2995,0 -2.35417,-1.05467 -2.35417,-2.35417v-4.70833c0,-1.2995 1.05467,-2.35417 2.35417,-2.35417h61.20833c1.2995,0 2.35417,1.05467 2.35417,2.35417v4.70833c0,1.2995 -1.05467,2.35417 -2.35417,2.35417z" fill="#0d86ad"/><path d="M185.97917,127.125h-61.20833c-1.2995,0 -2.35417,-1.05467 -2.35417,-2.35417v-4.70833c0,-1.2995 1.05467,-2.35417 2.35417,-2.35417h61.20833c1.2995,0 2.35417,1.05467 2.35417,2.35417v4.70833c0,1.2995 -1.05467,2.35417 -2.35417,2.35417z" fill="#0d86ad"/><path d="M185.97917,145.95833h-61.20833c-1.2995,0 -2.35417,-1.05467 -2.35417,-2.35417v-4.70833c0,-1.2995 1.05467,-2.35417 2.35417,-2.35417h61.20833c1.2995,0 2.35417,1.05467 2.35417,2.35417v4.70833c0,1.2995 -1.05467,2.35417 -2.35417,2.35417z" fill="#0d86ad"/><path d="M171.85417,164.79167h-47.08333c-1.2995,0 -2.35417,-1.05467 -2.35417,-2.35417v-4.70833c0,-1.2995 1.05467,-2.35417 2.35417,-2.35417h47.08333c1.2995,0 2.35417,1.05467 2.35417,2.35417v4.70833c0,1.2995 -1.05467,2.35417 -2.35417,2.35417z" fill="#0d86ad"/><path d="M207.16667,47.08333v23.54167h-188.33333v-23.54167c0,-5.17917 4.2375,-9.41667 9.41667,-9.41667h169.5c5.17917,0 9.41667,4.2375 9.41667,9.41667z" fill="url(#color-2)"/><path d="M77.6875,61.20833h117.70833c1.2995,0 2.35417,-1.05467 2.35417,-2.35417v-9.41667c0,-1.2995 -1.05467,-2.35417 -2.35417,-2.35417h-117.70833c-1.2995,0 -2.35417,1.05467 -2.35417,2.35417v9.41667c0,1.2995 1.05467,2.35417 2.35417,2.35417z" fill="url(#color-3)"/><circle cx="7.5" cy="11.5" transform="scale(4.70833,4.70833)" r="1.5" fill="url(#color-4)"/><circle cx="12.5" cy="11.5" transform="scale(4.70833,4.70833)" r="1.5" fill="url(#color-5)"/><path d="M99.92025,98.875h-58.5905c-2.02458,0 -3.66308,1.6385 -3.66308,3.66308v58.5905c0,2.02458 1.6385,3.66308 3.66308,3.66308h58.5905c2.02458,0 3.66308,-1.6385 3.66308,-3.66308v-58.5905c0,-2.02458 -1.6385,-3.66308 -3.66308,-3.66308z" fill="url(#color-6)"/><path d="M85.39033,130.1195c-2.10462,-2.10462 -5.49933,-2.15171 -7.66046,-0.10358l-18.08942,17.13833v17.63742h40.2845c2.01988,0 3.65838,-1.6385 3.65838,-3.66308v-12.81608z" fill="#436dcd"/><circle cx="19" cy="24" transform="scale(4.70833,4.70833)" r="1" fill="#ffffff"/><path d="M41.32975,164.79167h58.5905c1.48783,0 2.75908,-0.88987 3.3335,-2.16113l-39.8325,-39.8325c-2.10462,-2.10462 -5.49933,-2.15171 -7.66046,-0.10358l-18.09412,17.13833v21.29579c0,2.02458 1.6385,3.66308 3.66308,3.66308z" fill="url(#color-7)"/></g></g></svg>