<?xml version="1.0" encoding="UTF-8" standalone="no"?>
<svg
   xmlns:dc="http://purl.org/dc/elements/1.1/"
   xmlns:cc="http://creativecommons.org/ns#"
   xmlns:rdf="http://www.w3.org/1999/02/22-rdf-syntax-ns#"
   xmlns:svg="http://www.w3.org/2000/svg"
   xmlns="http://www.w3.org/2000/svg"
   xmlns:sodipodi="http://sodipodi.sourceforge.net/DTD/sodipodi-0.dtd"
   xmlns:inkscape="http://www.inkscape.org/namespaces/inkscape"
   inkscape:version="1.0 (4035a4fb49, 2020-05-01)"
   sodipodi:docname="Cardinal.svg"
   viewBox="0 0 820 819"
   height="819"
   width="820"
   id="svg2"
   version="1.1">
  <metadata
     id="metadata8">
    <rdf:RDF>
      <cc:Work
         rdf:about="">
        <dc:format>image/svg+xml</dc:format>
        <dc:type
           rdf:resource="http://purl.org/dc/dcmitype/StillImage" />
        <dc:title></dc:title>
      </cc:Work>
    </rdf:RDF>
  </metadata>
  <defs
     id="defs6" />
  <sodipodi:namedview
     inkscape:current-layer="g10"
     inkscape:window-maximized="1"
     inkscape:window-y="-1086"
     inkscape:window-x="2027"
     inkscape:cy="409.5"
     inkscape:cx="410"
     inkscape:zoom="1.037851"
     showgrid="false"
     id="namedview4"
     inkscape:window-height="1018"
     inkscape:window-width="1920"
     inkscape:pageshadow="2"
     inkscape:pageopacity="0"
     guidetolerance="10"
     gridtolerance="10"
     objecttolerance="10"
     borderopacity="1"
     bordercolor="#666666"
     pagecolor="#ffffff" />
  <g
     id="g10"
     inkscape:label="Image"
     inkscape:groupmode="layer">
    <path
       id="path837"
       d="m 404,806.12475 c -9.02023,-2.96981 -16.3409,-9.1237 -20.2202,-16.99747 -2.09213,-4.24636 -2.32096,-6.356 -2.7798,-25.62728 l -0.5,-21 -7,-0.73793 C 321.43908,736.27391 267.96639,716.76325 223.00427,686.85048 202.64243,673.30399 188.93705,662.03607 170.94513,644.0499 141.5555,614.66965 122.09714,587.2393 103.96747,549.63183 87.088687,514.61916 78.257237,483.43285 72.425957,438.25 L 71.877454,434 51.188727,433.99 c -19.628281,-0.009 -20.948365,-0.13044 -25.754123,-2.36824 -6.85773,-3.19329 -12.072199,-7.97308 -14.998826,-13.7485 C 8.3218156,413.70156 8,411.7007 8,402.72902 8,393.04638 8.1817969,392.10995 10.870001,387.94578 14.844352,381.7893 19.614483,377.50772 25.5,374.81414 c 4.579552,-2.09589 6.697759,-2.31782 25.189881,-2.63926 l 20.189881,-0.35095 0.507511,-2.66197 C 71.666404,367.69788 72.183541,363.575 72.536465,360 72.88939,356.425 74.284902,347.65 75.637603,340.5 95.857971,233.62077 166.47606,142.49904 265.58082,95.407628 c 14.10743,-6.703398 40.27604,-16.884101 41.15075,-16.009391 0.29266,0.292661 -7.96472,19.27822 -18.34973,42.190133 L 269.5,163.24639 l -11.02223,7.34226 c -42.89515,28.57386 -74.35188,64.16251 -97.38813,110.18031 -11.20141,22.37623 -20.65601,51.34825 -24.55057,75.23104 -0.85204,5.225 -1.78419,10.91937 -2.07145,12.65416 l -0.52229,3.15417 18.30153,0.34583 18.30152,0.34584 6.69021,3.29514 c 11.33784,5.58424 17.03508,14.63845 17.11828,27.20486 0.0818,12.35941 -5.68767,21.88671 -16.85687,27.8361 -4.83729,2.57663 -5.62643,2.67393 -24.24959,2.99006 l -19.24959,0.32675 0.61294,4.17355 c 5.98016,40.7189 17.61216,74.2421 37.08584,106.88064 40.27217,67.49753 107.3489,115.325 184.26329,131.38457 6.34541,1.32491 14.53943,2.69514 18.20893,3.04496 l 6.67182,0.63604 0.32818,-19.38634 c 0.32759,-19.35157 0.3335,-19.39594 3.29633,-24.74513 7.40911,-13.3767 23.58646,-19.51102 37.96534,-14.39615 6.65119,2.36597 14.69892,9.87223 17.67398,16.48484 2.16178,4.80494 2.40108,6.88095 2.71121,23.52011 l 0.34016,18.25 2.67058,-0.004 c 9.24396,-0.0139 38.42929,-6.71186 56.51502,-12.97001 88.16214,-30.5065 155.62248,-103.11507 179.6444,-193.35396 C 684.91928,462.66377 689,441.01429 689,436.47569 v -2.32557 L 669.25,433.82506 649.5,433.5 l -5.3588,-2.96815 c -10.23281,-5.66777 -16.14193,-15.85264 -16.14041,-27.81936 10e-4,-11.54775 7.64689,-22.9107 18.87681,-28.05552 4.07168,-1.86538 6.87041,-2.1612 23.49075,-2.48291 l 18.86836,-0.36522 -0.68943,-6.15442 C 686.50539,347.42687 680.00666,322.51029 671.94497,302 657.73044,265.83587 638.10608,236.00133 610.06071,207.91852 592.84725,190.68208 583.19822,182.65213 565.93103,171.19368 l -11.56897,-7.67713 -19.10795,-41.99802 C 524.74473,98.41962 516.29223,79.374435 516.47077,79.195896 c 0.17854,-0.178539 4.08315,1.009178 8.67692,2.63937 C 641.4707,123.11485 726.14227,222.1691 748.3913,343 c 1.36719,7.425 2.79691,16.94767 3.17716,21.16148 l 0.69136,7.66149 19.62009,0.41883 c 22.3751,0.47764 26.10728,1.35408 33.50847,7.86886 2.50989,2.2093 5.74009,6.48717 7.30547,9.6749 2.36482,4.81571 2.80615,6.97263 2.80615,13.71444 0,9.27983 -2.3393,15.03239 -8.83479,21.72554 -7.17492,7.39327 -10.34049,8.20709 -34.13046,8.77446 l -20.96525,0.5 -1.75065,13.5 C 738.07456,538.5652 688.93612,622.14737 615.5,676.47002 c -47.76445,35.33264 -103.57018,57.78146 -161,64.76503 l -11,1.33762 -0.5,20.46366 c -0.48534,19.86379 -0.58149,20.62961 -3.27978,26.12421 -3.22826,6.5738 -9.04365,12.21029 -15.5817,15.10239 -4.96954,2.19826 -16.01505,3.21942 -20.13852,1.86182 z M 257.21312,339.90457 C 257.75741,338.50371 284.52039,279.65594 344.4881,148 361.89913,109.775 384.06965,61.055149 393.75592,39.733664 403.44219,18.412178 411.70963,1.3121785 412.12799,1.7336635 412.88563,2.4969466 419.80371,17.641162 515.71796,228.5 c 27.77007,61.05 50.73857,111.40708 51.04111,111.90462 0.30255,0.49754 -28.20698,-13.62418 -63.35449,-31.38159 -35.14752,-17.75741 -70.168,-35.44339 -77.82329,-39.30218 l -13.91871,-7.01597 -42.08129,21.29338 c -23.14471,11.71136 -58.01863,29.39732 -77.49759,39.30213 -19.47897,9.90481 -35.17073,17.37669 -34.87058,16.60418 z"
       style="fill:#ffffff;fill-opacity:1" />
  </g>
</svg>
