<svg version="1.1" id="Capa_1" xmlns="http://www.w3.org/2000/svg" xmlns:xlink="http://www.w3.org/1999/xlink" x="0px" y="0px" width="501.672px" height="501.672px" viewBox="0 0 501.672 501.672" style="enable-background:new 0 0 501.672 501.672;" xml:space="preserve">
<g>
	<g id="Layer_8_59_">
		<path d="M476.836,275.667c0,124.608-101.381,226.005-225.995,226.005c-124.617,0-226.005-101.396-226.005-226.005    c0-92.843,58.241-177.615,144.907-210.942c14.446-5.538,30.657,1.646,36.212,16.093c5.551,14.443-1.655,30.653-16.093,36.208    C124.665,142.094,80.87,205.851,80.87,275.674c0,93.717,76.245,169.959,169.971,169.959c93.724,0,169.962-76.242,169.962-169.959    c0-68.086-40.482-129.433-103.095-156.268c-14.227-6.09-20.824-22.559-14.718-36.781c6.084-14.22,22.543-20.814,36.771-14.718    C423.024,103.576,476.836,185.128,476.836,275.667z M253.445,254.935c15.475,0,28.017-12.54,28.017-28.017V28.016    C281.462,12.542,268.92,0,253.445,0c-15.468,0-28.016,12.542-28.016,28.016v198.902    C225.429,242.396,237.982,254.935,253.445,254.935z" fill="#fff"/>
	</g>
</g>
</svg>