<svg version="1.1" xmlns="http://www.w3.org/2000/svg" xmlns:xlink="http://www.w3.org/1999/xlink" viewBox="0 0 172 172"><defs><linearGradient x1="94.95833" y1="152.29167" x2="94.95833" y2="128.5485" gradientUnits="userSpaceOnUse" id="color-1"><stop offset="0" stop-color="#737b80"/><stop offset="1" stop-color="#575c61"/></linearGradient><linearGradient x1="64.5" y1="136.5035" x2="64.5" y2="128.10058" gradientUnits="userSpaceOnUse" id="color-2"><stop offset="0" stop-color="#ffd869"/><stop offset="1" stop-color="#fec52b"/></linearGradient><linearGradient x1="78.83333" y1="136.5035" x2="78.83333" y2="128.10058" gradientUnits="userSpaceOnUse" id="color-3"><stop offset="0" stop-color="#ffd869"/><stop offset="1" stop-color="#fec52b"/></linearGradient><linearGradient x1="96.75" y1="136.5035" x2="96.75" y2="128.10058" gradientUnits="userSpaceOnUse" id="color-4"><stop offset="0" stop-color="#ffd869"/><stop offset="1" stop-color="#fec52b"/></linearGradient><linearGradient x1="111.08333" y1="136.5035" x2="111.08333" y2="128.10058" gradientUnits="userSpaceOnUse" id="color-5"><stop offset="0" stop-color="#ffd869"/><stop offset="1" stop-color="#fec52b"/></linearGradient><linearGradient x1="125.41667" y1="136.5035" x2="125.41667" y2="128.10058" gradientUnits="userSpaceOnUse" id="color-6"><stop offset="0" stop-color="#ffd869"/><stop offset="1" stop-color="#fec52b"/></linearGradient><linearGradient x1="86" y1="108.69325" x2="86" y2="153.1875" gradientUnits="userSpaceOnUse" id="color-7"><stop offset="0" stop-color="#c3cdd9"/><stop offset="1" stop-color="#9fa7b0"/></linearGradient><linearGradient x1="86" y1="22.99425" x2="86" y2="114.42658" gradientUnits="userSpaceOnUse" id="color-8"><stop offset="0" stop-color="#737b80"/><stop offset="1" stop-color="#575c61"/></linearGradient><linearGradient x1="39.41667" y1="125.26617" x2="39.41667" y2="139.93633" gradientUnits="userSpaceOnUse" id="color-9"><stop offset="0" stop-color="#75ff8a"/><stop offset="1" stop-color="#1ee446"/></linearGradient></defs><g fill="none" fill-rule="nonzero" stroke="none" stroke-width="1" stroke-linecap="butt" stroke-linejoin="miter" stroke-miterlimit="10" stroke-dasharray="" stroke-dashoffset="0" font-family="none" font-weight="none" font-size="none" text-anchor="none" style="mix-blend-mode: normal"><path d="M0,172v-172h172v172z" fill="none"/><g><rect x="14" y="34" transform="scale(3.58333,3.58333)" width="25" height="7" fill="url(#color-1)"/><path d="M66.29167,139.75h-3.58333c-0.989,0 -1.79167,-0.80267 -1.79167,-1.79167v-17.91667c0,-0.989 0.80267,-1.79167 1.79167,-1.79167h3.58333c0.989,0 1.79167,0.80267 1.79167,1.79167v17.91667c0,0.989 -0.80267,1.79167 -1.79167,1.79167z" fill="url(#color-2)"/><path d="M80.625,139.75h-3.58333c-0.989,0 -1.79167,-0.80267 -1.79167,-1.79167v-17.91667c0,-0.989 0.80267,-1.79167 1.79167,-1.79167h3.58333c0.989,0 1.79167,0.80267 1.79167,1.79167v17.91667c0,0.989 -0.80267,1.79167 -1.79167,1.79167z" fill="url(#color-3)"/><path d="M98.54167,139.75h-3.58333c-0.989,0 -1.79167,-0.80267 -1.79167,-1.79167v-17.91667c0,-0.989 0.80267,-1.79167 1.79167,-1.79167h3.58333c0.989,0 1.79167,0.80267 1.79167,1.79167v17.91667c0,0.989 -0.80267,1.79167 -1.79167,1.79167z" fill="url(#color-4)"/><path d="M112.875,139.75h-3.58333c-0.989,0 -1.79167,-0.80267 -1.79167,-1.79167v-17.91667c0,-0.989 0.80267,-1.79167 1.79167,-1.79167h3.58333c0.989,0 1.79167,0.80267 1.79167,1.79167v17.91667c0,0.989 -0.80267,1.79167 -1.79167,1.79167z" fill="url(#color-5)"/><path d="M127.20833,139.75h-3.58333c-0.989,0 -1.79167,-0.80267 -1.79167,-1.79167v-17.91667c0,-0.989 0.80267,-1.79167 1.79167,-1.79167h3.58333c0.989,0 1.79167,0.80267 1.79167,1.79167v17.91667c0,0.989 -0.80267,1.79167 -1.79167,1.79167z" fill="url(#color-6)"/><path d="M150.5,107.5v35.83333c0,3.94167 -3.225,7.16667 -7.16667,7.16667h-4.47917c-1.57667,0 -2.97417,-1.075 -3.44,-2.61583l-0.28667,-0.9675l-4.65833,-16.30417c-0.86,-3.08167 -3.69083,-5.19583 -6.88,-5.19583h-57.26167c-3.18917,0 -6.02,2.11417 -6.88,5.19583l-4.65833,16.30417l-0.28667,0.9675c-0.46583,1.54083 -1.86333,2.61583 -3.44,2.61583h-22.39583c-3.94167,0 -7.16667,-3.225 -7.16667,-7.16667v-35.83333z" fill="url(#color-7)"/><g fill="#000000"><path d="M150.5,107.5v35.83333c0,3.94167 -3.225,7.16667 -7.16667,7.16667h-4.47917c-1.57667,0 -2.97417,-1.075 -3.44,-2.61583l-0.28667,-0.9675h-3.72667l-4.37167,-15.30083c-0.43,-1.54083 -1.8275,-2.61583 -3.44,-2.61583h-57.26167c-1.6125,0 -3.01,1.075 -3.44,2.61583l-4.37167,15.30083h-3.72667l-0.28667,0.9675c-0.46583,1.54083 -1.86333,2.61583 -3.44,2.61583h-22.39583c-3.94167,0 -7.16667,-3.225 -7.16667,-7.16667v-35.83333z" opacity="0.05"/><path d="M150.5,107.5v35.83333c0,3.94167 -3.225,7.16667 -7.16667,7.16667h-4.47917c-1.57667,0 -2.97417,-1.075 -3.44,-2.61583l-0.28667,-0.9675h-1.86333l-4.515,-15.8025c-0.645,-2.29333 -2.75917,-3.90583 -5.16,-3.90583h-57.26167c-2.40083,0 -4.515,1.6125 -5.16,3.90583l-4.515,15.8025h-1.86333l-0.28667,0.9675c-0.46583,1.54083 -1.86333,2.61583 -3.44,2.61583h-22.39583c-3.94167,0 -7.16667,-3.225 -7.16667,-7.16667v-35.83333z" opacity="0.07"/></g><path d="M38.571,21.5h94.85442c3.612,0 6.66142,2.6875 7.10933,6.27442l9.91508,78.905c0.4945,4.25342 -2.83442,7.98725 -7.1165,7.98725h-114.66667c-4.28208,0 -7.611,-3.73383 -7.12008,-7.98725l9.91508,-78.905c0.4515,-3.58692 3.49733,-6.27442 7.10933,-6.27442z" fill="url(#color-8)"/><g><path d="M39.41667,125.41667c3.95958,0 7.16667,3.20708 7.16667,7.16667c0,3.95958 -3.20708,7.16667 -7.16667,7.16667c-3.95958,0 -7.16667,-3.20708 -7.16667,-7.16667c0,-3.95958 3.20708,-7.16667 7.16667,-7.16667M39.41667,121.83333c-5.92683,0 -10.75,4.82317 -10.75,10.75c0,5.92683 4.82317,10.75 10.75,10.75c5.92683,0 10.75,-4.82317 10.75,-10.75c0,-5.92683 -4.82317,-10.75 -10.75,-10.75z" fill="#000000" opacity="0.05"/><path d="M39.41667,125.41667c3.95958,0 7.16667,3.20708 7.16667,7.16667c0,3.95958 -3.20708,7.16667 -7.16667,7.16667c-3.95958,0 -7.16667,-3.20708 -7.16667,-7.16667c0,-3.95958 3.20708,-7.16667 7.16667,-7.16667M39.41667,123.625c-4.94142,0 -8.95833,4.01692 -8.95833,8.95833c0,4.94142 4.01692,8.95833 8.95833,8.95833c4.94142,0 8.95833,-4.01692 8.95833,-8.95833c0,-4.94142 -4.01692,-8.95833 -8.95833,-8.95833z" fill="#000000" opacity="0.07"/><circle cx="11" cy="37" transform="scale(3.58333,3.58333)" r="2" fill="url(#color-9)"/></g><g><g fill="#000000" opacity="0.05"><path d="M37.625,100.33333c2.967,0 5.375,1.60533 5.375,3.58333c0,1.978 -2.408,3.58333 -5.375,3.58333c-2.967,0 -5.375,-1.60533 -5.375,-3.58333c0,-1.978 2.408,-3.58333 5.375,-3.58333M37.625,96.75c-5.02383,0 -8.95833,3.14617 -8.95833,7.16667c0,4.0205 3.9345,7.16667 8.95833,7.16667c5.02383,0 8.95833,-3.14617 8.95833,-7.16667c0,-4.0205 -3.9345,-7.16667 -8.95833,-7.16667z"/><path d="M134.375,100.33333c2.967,0 5.375,1.60533 5.375,3.58333c0,1.978 -2.408,3.58333 -5.375,3.58333c-2.967,0 -5.375,-1.60533 -5.375,-3.58333c0,-1.978 2.408,-3.58333 5.375,-3.58333M134.375,96.75c-5.02383,0 -8.95833,3.14617 -8.95833,7.16667c0,4.0205 3.9345,7.16667 8.95833,7.16667c5.02383,0 8.95833,-3.14617 8.95833,-7.16667c0,-4.0205 -3.9345,-7.16667 -8.95833,-7.16667z"/><path d="M44.79167,28.66667c2.967,0 5.375,1.60533 5.375,3.58333c0,1.978 -2.408,3.58333 -5.375,3.58333c-2.967,0 -5.375,-1.60533 -5.375,-3.58333c0,-1.978 2.408,-3.58333 5.375,-3.58333M44.79167,25.08333c-5.02383,0 -8.95833,3.14617 -8.95833,7.16667c0,4.0205 3.9345,7.16667 8.95833,7.16667c5.02383,0 8.95833,-3.14617 8.95833,-7.16667c0,-4.0205 -3.9345,-7.16667 -8.95833,-7.16667z"/><path d="M127.20833,28.66667c2.967,0 5.375,1.60533 5.375,3.58333c0,1.978 -2.408,3.58333 -5.375,3.58333c-2.967,0 -5.375,-1.60533 -5.375,-3.58333c0,-1.978 2.408,-3.58333 5.375,-3.58333M127.20833,25.08333c-5.02383,0 -8.95833,3.14617 -8.95833,7.16667c0,4.0205 3.9345,7.16667 8.95833,7.16667c5.02383,0 8.95833,-3.14617 8.95833,-7.16667c0,-4.0205 -3.9345,-7.16667 -8.95833,-7.16667z"/></g><g fill="#000000" opacity="0.07"><path d="M37.625,100.33333c2.967,0 5.375,1.60533 5.375,3.58333c0,1.978 -2.408,3.58333 -5.375,3.58333c-2.967,0 -5.375,-1.60533 -5.375,-3.58333c0,-1.978 2.408,-3.58333 5.375,-3.58333M37.625,98.54167c-4.01692,0 -7.16667,2.36142 -7.16667,5.375c0,3.01358 3.14975,5.375 7.16667,5.375c4.01692,0 7.16667,-2.36142 7.16667,-5.375c0,-3.01358 -3.14975,-5.375 -7.16667,-5.375z"/><path d="M134.375,100.33333c2.967,0 5.375,1.60533 5.375,3.58333c0,1.978 -2.408,3.58333 -5.375,3.58333c-2.967,0 -5.375,-1.60533 -5.375,-3.58333c0,-1.978 2.408,-3.58333 5.375,-3.58333M134.375,98.54167c-4.01692,0 -7.16667,2.36142 -7.16667,5.375c0,3.01358 3.14975,5.375 7.16667,5.375c4.01692,0 7.16667,-2.36142 7.16667,-5.375c0,-3.01358 -3.14975,-5.375 -7.16667,-5.375z"/><path d="M44.79167,28.66667c2.967,0 5.375,1.60533 5.375,3.58333c0,1.978 -2.408,3.58333 -5.375,3.58333c-2.967,0 -5.375,-1.60533 -5.375,-3.58333c0,-1.978 2.408,-3.58333 5.375,-3.58333M44.79167,26.875c-4.01692,0 -7.16667,2.36142 -7.16667,5.375c0,3.01358 3.14975,5.375 7.16667,5.375c4.01692,0 7.16667,-2.36142 7.16667,-5.375c0,-3.01358 -3.14975,-5.375 -7.16667,-5.375z"/><path d="M127.20833,28.66667c2.967,0 5.375,1.60533 5.375,3.58333c0,1.978 -2.408,3.58333 -5.375,3.58333c-2.967,0 -5.375,-1.60533 -5.375,-3.58333c0,-1.978 2.408,-3.58333 5.375,-3.58333M127.20833,26.875c-4.01692,0 -7.16667,2.36142 -7.16667,5.375c0,3.01358 3.14975,5.375 7.16667,5.375c4.01692,0 7.16667,-2.36142 7.16667,-5.375c0,-3.01358 -3.14975,-5.375 -7.16667,-5.375z"/></g><ellipse cx="10.5" cy="29" transform="scale(3.58333,3.58333)" rx="1.5" ry="1" fill="#cccccc"/><ellipse cx="37.5" cy="29" transform="scale(3.58333,3.58333)" rx="1.5" ry="1" fill="#cccccc"/><ellipse cx="12.5" cy="9" transform="scale(3.58333,3.58333)" rx="1.5" ry="1" fill="#cccccc"/><ellipse cx="35.5" cy="9" transform="scale(3.58333,3.58333)" rx="1.5" ry="1" fill="#cccccc"/></g></g></g></svg>